<svg width="94" height="94" viewBox="0 0 94 94" fill="none" xmlns="http://www.w3.org/2000/svg">
<g id="Bez na&#204;&#129;zvu-1-01" clip-path="url(#clip0_264_375)">
<path id="Vector" d="M93.4803 64.0514C93.4651 62.7766 93.4575 61.4711 93.0781 60.2461C91.7614 56.0043 89.1507 52.8 85.1513 50.9356C81.296 49.1402 77.2358 49.1938 73.1605 50.1508C72.4053 50.3269 72.2308 50.2006 72.3864 49.4005C72.4926 48.8607 72.671 48.3362 72.8759 47.8271C74.1395 44.707 76.1961 42.2416 78.9472 40.3542C79.6492 39.8719 80.3777 39.4316 80.9317 38.7655C81.5578 38.0113 81.5882 37.2571 81.019 36.4187C80.5333 35.7029 79.5733 35.3851 78.7726 35.6952C78.378 35.8483 78.0061 36.0551 77.638 36.2733C74.3709 38.2142 71.8893 40.9093 70.0565 44.2438C69.9275 44.4773 69.863 44.8257 69.5443 44.8295C69.2217 44.8333 69.1534 44.485 69.032 44.2553C68.4856 43.2255 67.8822 42.2186 67.0474 41.4185C66.2164 40.6222 66.0191 39.7073 66.0267 38.6124C66.0571 33.3561 66.0419 28.0999 66.0381 22.8436C66.0381 20.1523 66.076 17.4648 66.0267 14.7736C65.9584 10.995 63.8297 8.91243 60.0844 8.90477C58.7829 8.90095 57.4776 8.8818 56.176 8.91243C55.2919 8.93157 54.6241 8.65211 54.0663 7.91707C52.9696 6.47381 51.5049 5.74643 49.6608 5.78088C47.57 5.81917 45.4792 5.77323 43.3922 5.7962C42.5194 5.80385 41.8857 5.51673 41.4721 4.7013C41.1003 3.96627 40.6146 3.30015 40.0568 2.69145C38.5124 0.999341 36.6037 0.10352 34.327 0.0078125H31.4204C30.2782 0.287278 29.0715 0.222197 28.0015 0.880664C26.4609 1.82625 25.2656 3.09725 24.3815 4.65154C23.892 5.50907 23.2507 5.81917 22.3096 5.80385C20.3137 5.7694 18.3178 5.80768 16.318 5.78854C14.4094 5.7694 12.8233 6.40872 11.6887 8.00512C11.2257 8.65976 10.611 8.92392 9.81797 8.91243C8.39501 8.89329 6.97585 8.90477 5.55289 8.91243C2.50966 8.92392 1.00322 10.1145 0.339172 13.0317V90.2369C0.574435 90.9222 0.5289 91.6802 0.969068 92.3234C1.9215 93.7207 3.3179 94.0002 4.8509 93.9963C25.4326 93.9963 46.018 93.9963 66.5997 93.9963C69.2065 93.9963 71.8096 94.0461 74.4127 93.9772C76.162 93.9312 77.9226 93.8585 79.615 93.2536C87.0675 90.5853 93.67 82.6722 93.4993 73.5073C93.4424 70.3604 93.5145 67.2097 93.4765 64.0629L93.4803 64.0514ZM66.8577 49.1517C66.9412 49.5881 67.1689 50.0245 66.9867 50.5605C65.0098 49.7986 62.9379 49.9939 60.9116 50.1011C57.9443 50.2619 55.8725 48.386 55.1098 45.6181C54.7455 44.2897 54.6165 42.923 54.6886 41.541C54.7038 41.2501 54.6279 40.9323 55.0946 40.8787C57.5686 40.5992 59.9744 40.649 62.2132 41.9736C64.9528 43.593 66.2809 46.1273 66.8539 49.1517H66.8577ZM56.8818 12.5417C58.0923 12.5417 59.3028 12.5187 60.5132 12.5493C61.811 12.5838 62.3384 13.1236 62.3384 14.406C62.346 22.254 62.3384 30.1021 62.3384 37.9501C62.3384 38.0994 62.3194 38.2525 62.308 38.4669C61.4656 38.2334 60.7219 37.9577 59.9554 37.839C59.3862 37.751 59.2914 37.4868 59.2914 36.9892C59.3065 34.4855 59.299 31.9818 59.299 29.478C59.299 26.1513 59.299 22.8206 59.299 19.4938C59.2952 16.7872 58.1758 15.6158 55.512 15.6273C54.8442 15.6273 54.6392 15.4665 54.6468 14.7697C54.6696 12.5417 54.6392 12.5417 56.878 12.5417H56.8818ZM14.3335 11.485C14.3335 9.93841 14.8533 9.41011 16.4167 9.40628C19.1412 9.3948 21.8657 9.40628 24.5902 9.40245C26.1763 9.40245 26.552 9.12299 27.0149 7.64144C27.8535 4.94632 30.1454 3.1853 32.8699 3.14702C35.5526 3.1049 37.9963 4.95397 38.8273 7.65292C39.2979 9.17658 39.59 9.40245 41.142 9.40628C43.8665 9.40628 46.591 9.40628 49.3155 9.40628C50.9965 9.40628 51.4784 9.89248 51.4822 11.5693C51.4898 13.2499 51.4898 14.9267 51.4822 16.6073C51.4746 18.2994 51.0534 18.732 49.399 18.732C43.8893 18.732 38.3834 18.732 32.8737 18.732C27.3943 18.732 21.9188 18.732 16.4395 18.732C14.8116 18.732 14.3373 18.2496 14.3335 16.615C14.3335 14.9037 14.3335 13.1963 14.3335 11.485ZM11.7039 19.2986C12.6146 21.1132 14.1665 21.9478 16.1359 21.9516C27.3109 21.9669 38.4858 21.9631 49.6608 21.9516C51.6264 21.9516 53.2011 21.1515 54.1042 19.3292C54.5216 18.487 55.2008 18.866 55.7662 18.8545C56.4265 18.8469 56.1305 19.4517 56.1343 19.7695C56.1533 25.4239 56.1343 31.0744 56.1609 36.7288C56.1609 37.3797 56.0394 37.6361 55.3299 37.6323C54.6772 37.6285 54.0207 37.8122 53.3757 37.9692C52.3967 38.2027 51.7895 38.7923 51.6871 39.8527C51.3418 43.3939 51.5998 46.8011 53.7058 49.8408C54.089 50.3959 54.5634 50.8591 55.1136 51.4448C52.7685 52.7235 50.8675 54.3773 49.4217 56.5594C47.995 58.7109 47.0501 61.073 46.9515 63.6341C46.8073 67.3208 46.6897 71.0227 47.0425 74.7132C47.3499 77.9213 48.4124 80.8806 50.0061 83.6561C50.1389 83.8858 50.4425 84.1117 50.3059 84.3758C50.1655 84.64 49.8164 84.4983 49.5621 84.4983C36.5696 84.506 23.577 84.4983 10.5845 84.5213C9.7952 84.5213 9.64721 84.2571 9.64721 83.5259C9.66619 62.2904 9.6586 41.051 9.67378 19.8154C9.67378 19.4785 9.41575 18.8775 10.0305 18.8698C10.5921 18.8583 11.2865 18.4717 11.7039 19.3024V19.2986ZM55.531 90.7652C38.9943 90.7652 22.4614 90.7652 5.92476 90.7652C3.91744 90.7652 3.44312 90.2982 3.44312 88.3075C3.44312 63.8638 3.44312 39.4163 3.44312 14.9726C3.44312 13.0087 3.89846 12.5417 5.83748 12.5417C7.38187 12.5417 8.92625 12.5608 10.4706 12.5302C11.0284 12.5187 11.2561 12.7178 11.1916 13.2729C11.1764 13.3915 11.1916 13.5179 11.1916 13.6404C11.1688 14.2452 11.3434 14.9765 11.0702 15.4282C10.778 15.9029 10.0077 15.5507 9.4499 15.6196C7.62472 15.8455 6.53189 17.1509 6.53189 19.1723C6.53189 33.9916 6.53189 48.8109 6.53189 63.6303C6.53189 70.3834 6.53189 77.1365 6.53189 83.8896C6.53189 86.4661 7.69681 87.6528 10.2316 87.6528C24.1917 87.6528 38.1557 87.6567 52.1159 87.6414C52.7344 87.6414 53.2125 87.7792 53.6413 88.2347C54.4913 89.142 55.512 89.8541 56.4417 90.7652H55.5386H55.531ZM89.5909 77.1174C87.6367 83.9011 83.4665 88.4912 76.5794 90.3173C75.6801 90.5547 74.7314 90.6581 73.798 90.6849C70.6864 90.7767 67.5635 90.9796 64.4671 90.4475C59.9402 89.6703 56.4265 87.2432 53.721 83.5719C51.2811 80.2604 50.1048 76.4857 50.0137 72.3894C49.9454 69.4301 49.8353 66.467 50.1275 63.5078C50.6929 57.7845 55.4361 53.3245 61.1317 53.2135C62.3991 53.1905 63.6779 53.0872 64.9377 53.3054C66.8653 53.6384 68.4059 55.3918 68.5121 57.3672C68.5387 57.8534 68.5273 58.3434 68.5349 58.8334C68.5463 60.2614 69.1344 61.0615 70.1552 61.0423C71.1759 61.0232 71.7261 60.2384 71.7337 58.7875C71.7337 58.3893 71.7337 57.9912 71.7451 57.5969C71.8172 55.342 73.3388 53.4776 75.5396 53.2862C77.9758 53.0795 80.446 52.98 82.8062 53.8681C87.3369 55.5717 90.2056 59.9781 90.2929 65.3607C90.3119 66.4594 90.2929 67.5619 90.2929 69.1162C90.3156 71.5013 90.3801 74.3533 89.5833 77.1135L89.5909 77.1174Z" fill="#FF8080"/>
<path id="Vector_2" d="M23.6036 57.8571C23.5733 56.2454 22.4956 54.9859 20.9095 54.8213C19.1336 54.6414 17.3426 54.6528 15.5667 54.8098C13.9047 54.9553 12.7891 56.1612 12.736 57.8342C12.6829 59.4497 12.6829 61.0691 12.736 62.6846C12.7929 64.3116 13.8782 65.5175 15.4984 65.6783C17.3312 65.8621 19.1868 65.8812 21.0195 65.6592C22.5146 65.4754 23.5657 64.2198 23.6036 62.7076C23.6226 61.9151 23.6036 61.1188 23.6074 60.3264C23.6074 59.5033 23.6188 58.6764 23.6074 57.8533L23.6036 57.8571ZM20.5148 61.9687C20.5224 62.3937 20.3934 62.5774 19.9495 62.5583C19.3765 62.5315 18.7997 62.5506 18.2229 62.5506C16.6672 62.5506 15.8893 61.7569 15.8893 60.1694C15.8893 58.6815 16.6254 57.9375 18.0977 57.9375C18.6441 57.9375 19.1905 57.9681 19.7332 57.9299C20.291 57.8878 20.5528 58.0256 20.5224 58.6687C20.4693 59.7674 20.4921 60.87 20.5148 61.9687Z" fill="#FF8080"/>
<path id="Vector_3" d="M15.7072 79.7817C16.5534 79.8238 17.3996 79.7893 18.2457 79.7893C18.2457 79.7893 18.2457 79.797 18.2457 79.8008C19.0009 79.8008 19.7598 79.8276 20.5149 79.797C22.3932 79.7204 23.5923 78.4647 23.6074 76.5736C23.6188 75.1073 23.615 73.6449 23.6074 72.1787C23.5999 70.2607 22.4956 68.9591 20.606 68.8442C18.9781 68.7447 17.3351 68.7447 15.711 68.8519C13.9883 68.9629 12.8044 70.188 12.7398 71.8571C12.6753 73.5033 12.6753 75.1533 12.7398 76.7994C12.8044 78.4839 14.049 79.7013 15.7072 79.7817ZM18.1471 72.037C18.8946 72.0409 19.8698 71.7116 20.3327 72.171C20.8412 72.6725 20.4921 73.6717 20.4997 74.4489C20.5225 76.6578 20.5073 76.6578 18.3103 76.6578C18.2799 76.6578 18.2495 76.6578 18.0826 76.6578C17.4755 76.5736 16.5154 76.9947 16.0411 76.497C15.5744 76.0108 15.9007 75.0461 15.8969 74.2957C15.8779 72.0332 15.8893 72.0217 18.1471 72.037Z" fill="#FF8080"/>
<path id="Vector_4" d="M20.6932 40.7102C19.847 40.6719 19.0009 40.7025 18.1547 40.7025V40.6872C17.4299 40.6872 16.7014 40.6719 15.9766 40.6872C14.0262 40.7332 12.755 42.0042 12.7209 43.9642C12.6981 45.4305 12.6981 46.8929 12.7209 48.3591C12.7512 50.235 13.9541 51.5672 15.7983 51.6553C17.3996 51.7319 19.0084 51.7357 20.606 51.6476C22.4311 51.5481 23.5923 50.2273 23.6037 48.3974C23.615 46.8393 23.6226 45.285 23.5999 43.7269C23.5733 42.0654 22.3325 40.7714 20.6932 40.7025V40.7102ZM20.3669 48.2749C19.866 48.7956 18.8832 48.4434 18.1091 48.451C15.8855 48.4778 15.8704 48.4587 15.8931 46.2497C15.9007 45.4726 15.5554 44.4772 16.0639 43.9719C16.5344 43.501 17.502 43.8953 18.1129 43.8303C20.5035 43.8303 20.5149 43.8303 20.4959 46.0736C20.4883 46.8278 20.8222 47.804 20.3631 48.2787L20.3669 48.2749Z" fill="#FF8080"/>
<path id="Vector_5" d="M15.7451 37.5708C17.3768 37.6206 19.016 37.6244 20.6477 37.5708C22.3173 37.5134 23.5733 36.1582 23.6037 34.4699C23.6188 33.6774 23.6037 32.8811 23.6037 32.0887C23.6037 31.3268 23.6112 30.5612 23.6037 29.7994C23.5847 27.9541 22.2945 26.6257 20.4732 26.5989C18.9591 26.5798 17.4451 26.5836 15.9349 26.5989C14.1476 26.618 12.7968 27.8699 12.7323 29.6539C12.6753 31.2694 12.6753 32.8926 12.7323 34.5082C12.7892 36.2156 14.0793 37.5249 15.7451 37.5746V37.5708ZM18.1547 29.7381C18.9022 29.7458 19.8736 29.4012 20.3403 29.8836C20.845 30.4042 20.42 31.3958 20.5035 32.0351C20.5035 33.6225 19.7699 34.4163 18.3027 34.4163C16.6912 34.4163 15.8855 33.6123 15.8855 32.0045C15.8855 29.7266 15.8855 29.7151 18.1547 29.7343V29.7381Z" fill="#FF8080"/>
<path id="Vector_6" d="M27.3565 34.1217C27.7663 34.428 28.2444 34.4701 28.7377 34.4663C32.1869 34.4624 35.6362 34.4663 39.0854 34.4663C41.3849 34.4663 43.6844 34.4663 45.9839 34.4663C47.2855 34.4663 48.587 34.4931 49.8847 34.4509C50.8713 34.4203 51.5543 33.7159 51.5467 32.8545C51.5392 32.0276 50.9055 31.3998 49.953 31.3003C49.6836 31.2735 49.4104 31.2773 49.1372 31.2773C42.4512 31.2773 35.7652 31.2773 29.0792 31.2773C28.6884 31.2773 28.2899 31.2926 27.9067 31.3653C27.235 31.4878 26.8594 31.9587 26.7342 32.6019C26.6127 33.2259 26.8556 33.7389 27.3603 34.1179L27.3565 34.1217Z" fill="#FF8080"/>
<path id="Vector_7" d="M45.7638 45.4648C45.3844 45.3385 44.9935 45.3308 44.5989 45.3308C42.0262 45.3308 39.4497 45.3308 36.877 45.3308C34.3043 45.3308 31.6064 45.3308 28.9729 45.3308C28.6087 45.3308 28.252 45.3385 27.8953 45.4418C27.1174 45.6639 26.7114 46.1883 26.7228 46.9731C26.7342 47.7158 27.1212 48.2518 27.8687 48.4279C28.2178 48.5121 28.5821 48.5542 28.9426 48.5542C34.1829 48.5619 39.4231 48.5619 44.6634 48.5542C45.0201 48.5542 45.392 48.516 45.7373 48.4241C46.4734 48.2365 46.8605 47.7197 46.8681 46.9617C46.8756 46.2037 46.4886 45.7022 45.7714 45.461L45.7638 45.4648Z" fill="#FF8080"/>
<path id="Vector_8" d="M29.0223 62.6309C33.1697 62.6309 37.3134 62.6309 41.4608 62.6309C41.8517 62.6309 42.2539 62.6156 42.6296 62.5199C43.3202 62.3476 43.7072 61.8576 43.7641 61.1455C43.8211 60.4258 43.472 59.9166 42.8421 59.6104C42.4778 59.4342 42.0831 59.4304 41.6885 59.4304C39.5711 59.4342 37.45 59.4304 35.3326 59.4304C33.2456 59.4304 31.1548 59.4304 29.0678 59.4304C27.4817 59.4304 26.6924 59.974 26.7076 61.0536C26.7228 62.1141 27.4741 62.627 29.0223 62.6309Z" fill="#FF8080"/>
<path id="Vector_9" d="M42.0034 73.5339C37.5562 73.5415 33.1052 73.5339 28.658 73.5377C27.4361 73.5377 26.719 74.1196 26.7038 75.0881C26.6886 76.0682 27.3906 76.6654 28.6125 76.6731C30.7905 76.6845 32.9686 76.6731 35.1505 76.6731C37.3589 76.6731 39.5673 76.6769 41.7758 76.6692C42.1628 76.6692 42.5612 76.7152 42.9255 76.497C43.6009 76.0912 43.9311 75.4978 43.7186 74.7283C43.4871 73.8899 42.8648 73.53 42.0034 73.53V73.5339Z" fill="#FF8080"/>
<path id="Vector_10" d="M58.3428 56.6053C54.8252 58.3318 53.3188 61.3409 53.057 64.9433C53.057 65.2534 53.057 65.3759 53.057 65.4946C53.0759 66.5205 53.6375 67.2135 54.4989 67.2862C55.3603 67.3589 56.0015 66.7655 56.1685 65.7472C56.2178 65.4448 56.271 65.1462 56.2937 64.8399C56.4759 62.4128 57.527 60.5561 59.724 59.4229C60.7637 58.8869 61.1052 58.0409 60.6726 57.2063C60.2325 56.3526 59.3635 56.1037 58.3428 56.6053Z" fill="#FF8080"/>
<path id="Vector_11" d="M26.7076 15.6538C26.9467 15.6844 27.1895 15.6844 27.4324 15.6844C33.663 15.6844 39.8899 15.6844 46.1205 15.6844C46.481 15.6844 46.8453 15.6538 47.202 15.5887C47.9154 15.4586 48.291 14.9724 48.4011 14.2794C48.5642 13.2535 47.7788 12.4954 46.5152 12.4916C43.2784 12.4801 40.0455 12.4878 36.8087 12.4878C35.4161 12.4878 34.0273 12.4878 32.6347 12.4878C30.6995 12.4878 28.7642 12.4648 26.829 12.5031C25.8349 12.5222 25.1632 13.2037 25.1518 14.0727C25.1404 14.9111 25.7514 15.5351 26.7076 15.6576V15.6538Z" fill="#FF8080"/>
<path id="Vector_12" d="M19.9001 15.6961C20.105 15.6731 20.4997 15.6654 20.8791 15.5812C21.7025 15.3936 22.1693 14.6241 22.0023 13.7934C21.8354 12.9473 21.2434 12.5224 20.1999 12.4879C18.4772 12.4343 17.6689 12.7674 17.464 13.6632C17.335 14.2222 17.4223 14.7543 17.8473 15.1831C18.3747 15.7114 19.0501 15.6731 19.9001 15.6999V15.6961Z" fill="#FF8080"/>
</g>
<defs>
<clipPath id="clip0_264_375">
<rect width="93.1607" height="94" fill="white" transform="translate(0.342712)"/>
</clipPath>
</defs>
</svg>
