<svg width="112" height="86" viewBox="0 0 112 86" fill="none" xmlns="http://www.w3.org/2000/svg">
<g id="Bez na&#204;&#129;zvu-1-03" clip-path="url(#clip0_264_369)">
<path id="Vector" d="M111.628 50.8908C110.65 53.5441 108.763 54.6656 105.994 54.4517C104.671 54.3514 103.336 54.4343 101.871 54.4343C101.871 55.9049 101.871 57.2839 101.871 58.6628C101.858 62.4245 99.1785 65.1344 95.4436 65.1562C93.9618 65.165 92.4799 65.1606 90.998 65.1562C87.1209 65.1431 84.4931 62.5248 84.463 58.545C84.4242 53.0902 84.4501 47.6398 84.4501 42.185C84.4501 41.7573 84.4501 41.3253 84.4501 40.8409H78.8972C78.8972 41.705 78.8628 42.569 78.9059 43.4287C78.9963 45.3619 78.32 46.9896 77.1052 48.4471C75.7525 50.0661 74.4602 51.7418 73.0946 53.3477C72.5647 53.9717 72.3106 54.6001 72.3709 55.4249C72.4312 56.2235 72.401 57.0351 72.3795 57.8381C72.3493 58.929 71.6989 59.6447 70.7641 59.6665C69.8292 59.6883 69.14 58.977 69.1185 57.8948C69.0883 56.6162 69.0366 55.3289 69.14 54.0546C69.1917 53.4131 69.4372 52.6931 69.8249 52.1869C71.2595 50.3061 72.7586 48.4733 74.2922 46.6754C75.2399 45.567 75.7051 44.3713 75.6664 42.8832C75.5974 40.0293 75.6534 37.1753 75.6448 34.3214C75.6405 32.7504 75.046 32.1263 73.4866 32.1176C69.0797 32.1045 64.6728 32.1176 60.2659 32.1089C59.051 32.1089 58.0689 32.5147 57.5002 33.6624C57.0221 34.6312 57.1254 35.5781 57.7199 36.464C58.3833 37.4415 59.3827 37.6859 60.4726 37.6859C62.605 37.6859 64.7374 37.6859 66.8655 37.6859C68.2827 37.6902 68.9461 38.2183 68.9505 39.3223C68.9505 40.4089 68.2397 41.0024 66.8784 40.9937C57.2676 40.9282 47.6611 40.8584 38.0503 40.7886C37.6239 40.7886 37.1931 40.7886 36.6977 40.7886C36.534 43.0098 36.3918 45.0738 38.102 46.863C39.6787 48.5126 41.0572 50.3672 42.4443 52.1913C42.8277 52.6975 43.125 53.4306 43.125 54.059C43.1681 63.8689 43.1508 73.6744 43.1594 83.4844C43.1594 84.4139 42.9484 85.2648 41.9791 85.4219C41.4406 85.5092 40.6781 85.2517 40.2904 84.8633C39.9544 84.5273 39.8984 83.7986 39.8941 83.24C39.8726 73.9799 39.8683 64.7199 39.8941 55.4641C39.8941 54.6001 39.6787 53.9455 39.1187 53.2953C37.8177 51.7767 36.6245 50.1621 35.3106 48.6522C33.8976 47.0289 33.1997 45.2004 33.3462 43.0359C33.3936 42.3465 33.3548 41.6526 33.3548 40.8758H27.802C27.802 41.2904 27.802 41.7181 27.802 42.1457C27.802 47.4521 27.6986 52.7629 27.8322 58.065C27.9528 62.8259 24.416 65.4704 20.7501 65.1737C18.9192 65.0253 17.0453 65.2479 15.249 64.9337C12.2981 64.4144 10.3983 61.8528 10.3811 58.8156C10.3725 57.3973 10.3811 55.9791 10.3811 54.4386C8.69675 54.4386 7.12008 54.4474 5.53911 54.4386C2.44608 54.4168 0.628174 52.584 0.628174 49.4682C0.628174 38.4888 0.628174 27.5094 0.628174 16.53C0.628174 13.4666 2.43747 11.6032 5.44433 11.5727C7.02962 11.5552 8.61921 11.5727 10.3811 11.5727C10.3811 10.2286 10.4673 8.91944 10.3639 7.63211C10.0925 4.16286 12.8926 0.680514 17.0798 0.841976C18.9882 0.916161 20.9267 0.772154 22.8006 1.06017C25.6395 1.49219 27.6125 3.85739 27.746 6.75934C27.8494 8.9849 27.8106 11.2235 27.7848 13.4535C27.7718 14.5444 27.0524 15.2688 26.1478 15.2601C25.2388 15.247 24.5237 14.4964 24.5065 13.4317C24.4764 11.4199 24.5065 9.40383 24.4936 7.3921C24.4807 5.48074 23.3865 4.31123 21.4953 4.24141C19.9445 4.18904 18.3894 4.19777 16.8343 4.23268C14.7837 4.28068 13.6723 5.46328 13.6378 7.55792C13.6378 7.7412 13.6378 7.92449 13.6378 8.10777C13.6378 24.7209 13.6378 41.3384 13.6378 57.9515C13.6378 60.74 14.6889 61.8179 17.4115 61.8223C18.6048 61.8223 19.798 61.831 20.987 61.8223C23.3994 61.8048 24.4936 60.6964 24.4936 58.2614C24.4936 46.0383 24.4936 33.8151 24.4936 21.592C24.4936 21.2255 24.4677 20.8545 24.5108 20.4967C24.6142 19.5847 25.3379 18.9083 26.165 18.9083C27.018 18.9083 27.7158 19.5498 27.7675 20.5098C27.8279 21.64 27.7977 22.779 27.8063 23.9136C27.8063 24.3063 27.8063 24.6991 27.8063 25.1486H35.5432C35.5432 24.0489 35.5733 22.9317 35.5389 21.8146C35.4527 19.1308 36.4435 17.0013 38.7698 15.6834C41.1304 14.3481 43.4782 14.575 45.6924 16.146C45.7484 16.1852 45.826 16.1896 45.9552 16.2245C48.5184 13.2091 51.5468 12.7029 54.9715 14.6884C58.4523 9.8533 64.0998 11.1145 66.0987 14.8586C67.4169 14.5662 68.6834 14.0775 69.9628 14.0382C73.0817 13.9422 75.7654 16.3991 76.0842 19.5367C76.2307 20.9505 76.1747 22.3862 76.2092 23.8089C76.2178 24.2365 76.2092 24.6642 76.2092 25.1442H84.463V23.8394C84.463 18.533 84.5664 13.2222 84.4328 7.92012C84.3165 3.20281 87.8188 0.580145 91.4287 0.82452C93.2596 0.946708 95.1292 0.76779 96.9298 1.05144C99.8506 1.51837 101.854 4.11922 101.875 7.10408C101.884 8.53106 101.875 9.95804 101.875 11.5596C103.271 11.5596 104.632 11.6425 105.981 11.5421C108.746 11.3326 110.642 12.4454 111.632 15.0855V50.8821L111.628 50.8908ZM101.871 14.8804V16.1547C101.871 20.4749 101.871 24.7907 101.871 29.1109C101.871 32.4798 101.858 35.8443 101.88 39.2132C101.884 40.0554 101.552 40.7493 100.794 40.8933C100.251 40.9937 99.4758 40.7798 99.0708 40.4089C98.7262 40.0991 98.6444 39.3572 98.6444 38.8074C98.6228 28.4476 98.6314 18.0922 98.6228 7.73248C98.6228 5.37164 97.5071 4.24141 95.1766 4.21522C93.8024 4.20213 92.4282 4.1934 91.0583 4.21522C88.844 4.2545 87.7714 5.37164 87.7671 7.63211C87.7671 24.542 87.7671 41.4519 87.7671 58.3617C87.7671 60.6484 88.8871 61.783 91.166 61.8092C92.4669 61.8266 93.7679 61.8179 95.0689 61.8092C97.5028 61.7917 98.6228 60.644 98.6228 58.1523C98.6271 54.4561 98.6228 50.7599 98.6228 47.0638C98.6228 46.8063 98.6099 46.5488 98.6271 46.2957C98.7004 45.3662 99.3681 44.7335 100.251 44.7335C101.134 44.7335 101.836 45.375 101.858 46.3045C101.892 47.8973 101.867 49.4857 101.867 51.0479C102.121 51.0829 102.19 51.1047 102.263 51.1047C103.564 51.1047 104.865 51.1134 106.166 51.1134C108.074 51.1134 108.376 50.8167 108.376 48.9184C108.376 38.3055 108.376 27.6883 108.376 17.0755C108.376 16.7482 108.488 16.3292 108.333 16.1067C108.014 15.6398 107.575 14.9634 107.139 14.9284C105.425 14.7932 103.697 14.8717 101.871 14.8717V14.8804ZM10.3079 51.1178V14.9503C10.1657 14.9154 10.0968 14.8848 10.0279 14.8848C8.69244 14.8804 7.35701 14.8717 6.01728 14.8717C4.22952 14.8717 3.87628 15.2252 3.87628 17.0405C3.87628 27.6883 3.87628 38.3317 3.87628 48.9795C3.87628 49.237 3.85905 49.4944 3.8849 49.7475C3.96675 50.5941 4.39753 51.109 5.26771 51.1178C6.92192 51.1309 8.58044 51.1178 10.3036 51.1178H10.3079ZM54.5666 31.9823C51.5037 33.5228 48.8501 33.0864 46.5109 30.8957C42.733 34.1861 38.4036 33.3919 36.0429 29.0629C35.9223 28.8447 35.6638 28.548 35.4656 28.548C32.9542 28.5131 30.4384 28.5262 27.8666 28.5262V37.4415H54.4029C53.7567 35.6436 53.7567 33.8719 54.5666 31.9823ZM63.5183 22.1855C63.5183 20.7585 63.5398 19.3316 63.514 17.9046C63.4881 16.5649 62.7127 15.5045 61.5065 15.0768C59.4258 14.3393 57.5519 15.8056 57.5045 18.2799C57.4571 20.584 57.4873 22.8881 57.5002 25.1922C57.5002 25.8468 57.5088 26.5144 57.6208 27.1559C57.8578 28.4738 58.3532 28.8229 59.6369 28.7487C60.1754 28.7182 60.7182 28.7313 61.261 28.7313C62.9324 28.7313 63.4967 28.1771 63.5183 26.4621C63.5398 25.0351 63.5183 23.6081 63.5183 22.1811V22.1855ZM54.1918 23.1586C54.1918 22.059 54.2133 20.9636 54.1875 19.864C54.1444 18.2712 52.9598 16.9969 51.4391 16.8485C49.9227 16.7045 48.3892 17.7606 48.2901 19.3665C48.135 21.915 48.1393 24.4809 48.2901 27.0294C48.3805 28.5873 49.8667 29.6564 51.3228 29.5735C52.8951 29.4819 54.1444 28.1902 54.1875 26.5581C54.2177 25.4235 54.1918 24.2889 54.1961 23.1543L54.1918 23.1586ZM72.8404 23.4161C72.8404 23.4161 72.8447 23.4161 72.849 23.4161C72.849 22.395 72.849 21.3695 72.849 20.3483C72.849 20.2742 72.849 20.2 72.8404 20.1301C72.7284 18.6333 71.5136 17.4289 70.0059 17.3242C68.5584 17.2238 67.0378 18.3497 66.9602 19.8465C66.8396 22.2466 66.8482 24.6642 66.9559 27.0643C67.0119 28.3734 67.5762 28.7313 68.8514 28.7356C69.5019 28.7356 70.161 28.6658 70.7985 28.7487C72.3536 28.9582 72.7112 27.9414 72.8189 26.8112C72.9266 25.6897 72.8447 24.5507 72.8447 23.4161H72.8404ZM44.8653 23.8743C44.8653 22.9972 44.8869 22.1157 44.861 21.2386C44.8136 19.5847 43.6118 18.2973 42.0437 18.1708C40.5446 18.053 39.0584 19.1221 38.9291 20.7498C38.7654 22.8183 38.7654 24.9173 38.9291 26.9857C39.0541 28.6047 40.5618 29.6957 42.0394 29.5735C43.6118 29.4426 44.8093 28.1552 44.861 26.5057C44.8869 25.6286 44.8653 24.7515 44.8653 23.87V23.8743ZM84.3682 37.4415V28.5174C81.6456 28.5174 79.0179 28.5087 76.3858 28.5349C76.1488 28.5349 75.9162 28.7618 75.5113 28.9756C78.1821 30.2193 79.0868 32.2311 78.9145 34.8625C78.8585 35.7178 78.9059 36.5818 78.9059 37.4459H84.3682V37.4415Z" fill="#FF8080"/>
<path id="Vector_2" d="M69.1012 74.3858C69.1012 71.4228 69.0969 68.4641 69.1012 65.501C69.1012 64.061 69.6268 63.3889 70.708 63.3802C71.7893 63.3715 72.3752 64.0871 72.3752 65.4618C72.3752 71.4577 72.3795 77.4536 72.3752 83.4539C72.3752 84.7674 71.7118 85.5834 70.6951 85.5572C69.7129 85.5354 69.1098 84.7718 69.1055 83.4931C69.0969 80.4603 69.1055 77.423 69.1055 74.3902L69.1012 74.3858Z" fill="#FF8080"/>
</g>
<defs>
<clipPath id="clip0_264_369">
<rect width="111" height="84.7467" fill="white" transform="translate(0.628174 0.813232)"/>
</clipPath>
</defs>
</svg>
