<svg width="102" height="80" viewBox="0 0 102 80" fill="none" xmlns="http://www.w3.org/2000/svg">
<g id="Bez na&#204;&#129;zvu-1-02" clip-path="url(#clip0_264_391)">
<path id="Vector" d="M7.38069 66.047C6.18537 66.047 5.06452 66.0733 3.94739 66.0432C1.67218 65.9793 0.532715 64.7795 0.532715 62.4929C0.532715 56.731 0.532715 50.9729 0.532715 45.2111C0.532715 43.3682 1.71314 42.0669 3.5415 41.9842C4.82247 41.9278 6.10717 41.9729 7.4142 41.9729C7.57433 40.713 7.96532 39.6035 9.04893 38.9829C9.62239 38.652 10.3299 38.4677 10.9927 38.4075C12.0056 38.3135 13.0333 38.3699 14.0574 38.3849C16.2544 38.415 17.6806 39.8555 17.7066 42.0933C17.729 43.9512 17.7104 45.8129 17.7104 47.7347H22.5401C22.2906 47.3361 22.0746 46.9901 21.8549 46.6441C18.6003 41.5554 16.098 36.1584 14.8915 30.1672C12.1359 16.4997 20.3356 3.40772 33.8379 0.586978C43.0468 -1.33865 50.9225 1.52723 57.2715 8.5678C57.4502 8.76337 57.6141 8.97398 57.7928 9.16579C57.8338 9.21093 57.9082 9.22597 58.0684 9.30871C58.2583 9.0981 58.4817 8.87244 58.6828 8.62797C67.415 -1.86895 83.6431 -2.89946 93.5483 6.44284C93.9653 6.83774 94.3526 7.48087 94.3675 8.01869C94.3787 8.43616 93.8573 9.06801 93.4328 9.23725C93.0158 9.39898 92.3232 9.24101 91.9173 8.96646C90.7443 8.16913 89.7202 7.1499 88.5286 6.39018C79.6698 0.744939 68.1523 2.34712 61.2708 10.3467C59.0701 12.9042 56.9885 12.8854 54.6984 10.3355C48.8 3.76125 41.3376 1.51218 32.9182 3.96811C24.4764 6.43156 19.3525 12.3476 17.729 21.1182C16.6752 26.8161 17.9263 32.2696 20.3319 37.392C21.9294 40.7995 24.0035 43.9813 25.9138 47.2345C26.0925 47.5392 26.6436 47.7799 27.0235 47.7836C30.9781 47.8212 34.9327 47.8062 38.8873 47.81C40.1162 47.81 40.8237 48.3628 40.8162 49.3068C40.8088 50.2471 40.0976 50.8037 38.8762 50.8037C32.2181 50.8037 25.56 50.8037 18.902 50.8037C18.5445 50.8037 18.187 50.8037 17.7662 50.8037V56.9642H50.5464V50.8037C49.1388 50.8037 47.735 50.8075 46.3274 50.8037C45.1916 50.7999 44.4916 50.2283 44.4804 49.3144C44.4692 48.4004 45.1693 47.8175 46.305 47.8137C47.7126 47.81 49.1202 47.8137 50.6246 47.8137C50.6246 46.016 50.6879 44.3235 50.6097 42.6348C50.4943 40.2466 51.8572 38.1405 54.8436 38.3849C55.499 38.4376 56.1618 38.3924 56.8209 38.3924C59.3196 38.4 60.4851 39.4004 60.9133 41.9691C62.0491 41.9691 63.1997 41.9579 64.3466 41.9691C66.6107 41.9992 67.9847 43.3569 67.9922 45.6399C68.0108 51.1986 68.0108 56.7611 67.9922 62.3199C67.9847 64.6554 66.6255 66.0019 64.2908 66.0508C63.1736 66.0733 62.0565 66.0545 60.9506 66.0545C60.3324 68.7888 59.2935 69.6275 56.5565 69.6275C55.8304 69.6275 55.1043 69.6387 54.3819 69.6275C52.0285 69.5786 50.6618 68.202 50.6246 65.8138C50.5985 64.0161 50.606 62.2183 50.5985 60.4206C50.5985 60.3604 50.5538 60.2964 50.5054 60.1648H37.1074C37.3122 60.4168 37.4462 60.6199 37.6138 60.7816C43.5495 66.5284 49.9394 71.711 56.698 76.4349C57.5619 77.0404 58.3923 77.0705 59.2525 76.4612C70.3456 68.6158 80.6194 59.8677 88.8861 48.927C92.8668 43.6616 96.1214 37.9863 97.7412 31.4873C99.2195 25.5712 98.8956 19.8282 95.9836 14.3597C95.4362 13.3292 95.6447 12.5018 96.4863 12.0542C97.3204 11.6104 98.0838 11.9301 98.6423 12.9757C101.912 19.0798 102.303 25.5035 100.679 32.1266C98.9216 39.2988 95.2761 45.5007 90.8783 51.2964C85.315 58.6303 78.7761 65.0052 71.6712 70.7859C68.2863 73.5389 64.7786 76.134 61.2708 78.7291C58.936 80.4554 57.0928 80.4065 54.7356 78.7516C47.061 73.3659 39.8443 67.4198 33.2496 60.7177C32.9554 60.4168 32.4862 60.1197 32.0952 60.1159C27.4815 60.0745 22.8678 60.0896 18.254 60.0971C18.0939 60.0971 17.9375 60.1498 17.6955 60.1911C17.6955 62.0002 17.6955 63.7942 17.6955 65.5882C17.688 68.2246 16.3475 69.6011 13.7632 69.6275C13.1041 69.635 12.445 69.6275 11.7859 69.6275C9.01169 69.6275 8.00256 68.8188 7.36952 66.0508L7.38069 66.047ZM14.6532 53.9705C14.6532 50.1418 14.6383 46.3131 14.6643 42.4882C14.6681 41.6984 14.4744 41.2997 13.6068 41.3862C12.9216 41.4539 12.2216 41.4426 11.5327 41.3862C10.747 41.3223 10.4789 41.6382 10.49 42.4129C10.5198 44.0414 10.5161 45.6737 10.4714 47.306C10.4491 48.1898 9.94635 48.7276 9.05265 48.7841C8.21853 48.8405 7.59294 48.2312 7.48123 47.3286C7.38814 46.5688 7.54454 45.4744 7.1163 45.1359C6.62105 44.741 5.60819 45.008 4.81875 44.9855C4.68842 44.9855 4.55436 45.0005 4.42403 44.9855C3.56757 44.8689 3.26967 45.2186 3.28084 46.1062C3.3218 49.3332 3.29946 52.5639 3.29946 55.7908C3.29946 57.8556 3.32553 59.9203 3.28457 61.9814C3.26967 62.7712 3.54523 63.0645 4.31977 63.0081C5.04218 62.9592 5.77203 62.9479 6.49444 63.0081C7.31739 63.0796 7.51475 62.711 7.48496 61.955C7.43655 60.7252 7.47378 59.4916 7.47378 58.2618C7.47378 56.9642 7.44772 55.6629 7.48496 54.3691C7.51102 53.38 8.14034 52.7782 9.02659 52.7933C9.88305 52.8083 10.4118 53.3612 10.4863 54.339C10.5086 54.6362 10.4975 54.937 10.4975 55.2379C10.4975 58.6341 10.5235 62.0303 10.4826 65.4227C10.4714 66.3366 10.7544 66.7014 11.6779 66.5999C12.296 66.5322 12.9328 66.5359 13.5547 66.5999C14.4521 66.6939 14.6755 66.2952 14.6681 65.4528C14.6346 61.6241 14.6532 57.7954 14.6532 53.9705ZM53.6967 53.9404C53.6967 57.2012 53.6967 60.4619 53.6967 63.7227C53.6967 65.6358 54.64 66.5911 56.5267 66.5886C57.8598 66.5886 57.8636 66.5886 57.8636 65.276C57.8636 59.9504 57.8636 54.6286 57.8636 49.3031C57.8636 47.039 57.8338 44.7786 57.8785 42.5145C57.8971 41.6382 57.5917 41.3072 56.7315 41.3824C56.0762 41.4426 55.4096 41.4426 54.758 41.3824C53.9276 41.3072 53.6781 41.6344 53.6855 42.4581C53.719 46.283 53.7004 50.1117 53.7004 53.9366L53.6967 53.9404ZM65.0169 54.0795C65.0169 51.3867 64.9946 48.69 65.0318 45.9972C65.043 45.2074 64.7823 44.9178 64.0078 44.9704C63.2854 45.0231 62.5555 45.0231 61.8368 44.9704C61.0325 44.9102 60.8239 45.26 60.8351 46.0197C60.8724 48.1823 60.85 50.3411 60.85 52.5037C60.85 55.6629 60.8724 58.8221 60.8351 61.9814C60.8277 62.7749 61.0883 63.0608 61.8629 63.0044C62.5853 62.9517 63.3151 62.9479 64.0338 63.0044C64.8382 63.0683 65.043 62.7185 65.0318 61.9588C64.9946 59.3336 65.0169 56.7047 65.0169 54.0758V54.0795Z" fill="#FF8080"/>
<path id="Vector_2" d="M43.7095 34.0256C44.4096 31.7239 45.1171 29.4222 45.8134 27.1167C46.6848 24.232 47.5561 21.3435 48.4051 18.4513C48.6584 17.5863 49.0531 16.8567 50.0436 16.883C50.9708 16.9056 51.3506 17.5938 51.5927 18.4363C52.2257 20.629 52.9109 22.8066 53.596 25.0519C55.4281 25.0519 57.2379 25.0519 59.0439 25.0519C61.4494 25.0519 63.855 25.0444 66.2605 25.0556C67.3739 25.0632 68.1001 25.6724 68.1261 26.5638C68.1522 27.4476 67.4261 28.1284 66.3275 28.1359C61.8144 28.1547 57.3012 28.1472 52.788 28.1434C51.8124 28.1434 51.1905 27.7071 50.9373 26.7067C50.7064 25.7853 50.3824 24.8902 50.0175 23.728C49.8202 24.3185 49.6898 24.6758 49.5781 25.0406C48.1221 29.8622 46.6624 34.6838 45.2251 39.5091C44.9681 40.3666 44.6069 41.1188 43.6127 41.1151C42.6296 41.1113 42.2647 40.3817 42.0077 39.5091C40.6709 34.9997 39.2782 30.5053 37.9451 25.9921C37.7478 25.3227 37.4536 25.1271 36.7796 25.1346C32.892 25.1685 29.0044 25.1534 25.1168 25.1497C24.7556 25.1497 24.3907 25.1497 24.0332 25.0933C23.2102 24.9579 22.7411 24.4501 22.7001 23.6114C22.6629 22.8404 23.2773 22.2011 24.1114 22.0769C24.305 22.0506 24.5061 22.0619 24.7035 22.0619C29.2167 22.0619 33.7298 22.0619 38.243 22.0619C39.5873 22.0619 39.9783 22.3477 40.373 23.6528C41.4194 27.1091 42.4583 30.5655 43.4972 34.0218C43.5643 34.0218 43.6313 34.0294 43.6983 34.0294L43.7095 34.0256Z" fill="#FF8080"/>
</g>
<defs>
<clipPath id="clip0_264_391">
<rect width="101.089" height="80" fill="white" transform="translate(0.532288)"/>
</clipPath>
</defs>
</svg>
