<svg width="84" height="83" viewBox="0 0 84 83" fill="none" xmlns="http://www.w3.org/2000/svg">
<g id="Group">
<g id="Group_2">
<g id="Group_3">
<g id="Group_4">
<g id="Group_5">
<path id="Vector" d="M4.4061 31.3752L4.88096 32.1729L6.04808 32.4958L5.75392 33.5561L1.13776 32.2801L1.43123 31.2199L3.58816 31.8161L1.99713 29.178L2.32594 27.9929L3.85447 30.4716L6.97403 29.157L6.62892 30.4018L4.4061 31.3752Z" fill="#343434"/>
</g>
<g id="Group_6">
<path id="Vector_2" d="M3.87213 24.2464L4.36873 23.2567L7.8436 24.9954L8.91969 22.8511L9.72743 23.2554L8.15474 26.3894L3.87213 24.2464Z" fill="#343434"/>
</g>
<g id="Group_7">
<path id="Vector_3" d="M8.73148 15.6033L8.21858 16.2606L8.00934 14.9284L8.71586 14.0234L8.73148 15.6033ZM12.5535 17.4518L11.1866 19.2027L11.7349 20.1666L11.0365 21.0614L8.57184 16.4404L9.24507 15.5782L14.3388 16.8318L13.6241 17.7476L12.5535 17.4518ZM11.6751 17.2103L9.76206 16.6826L10.741 18.4063L11.6751 17.2103Z" fill="#343434"/>
</g>
<g id="Group_8">
<path id="Vector_4" d="M18.8123 12.7496L17.2457 12.3277L17.2036 12.3629L16.4672 12.9843L17.3286 14.0018L16.4821 14.7161L13.3911 11.0646L14.974 9.7282C15.9509 8.904 16.9903 8.89383 17.6839 9.7126C18.1472 10.2607 18.2104 10.8956 17.9074 11.5007L19.7213 11.9824L18.8123 12.7496ZM15.51 10.4568L14.8205 11.0388L15.8979 12.3114L16.5874 11.7293C17.1044 11.2932 17.1629 10.8326 16.8273 10.4357C16.4869 10.0348 16.027 10.0206 15.51 10.4568Z" fill="#343434"/>
</g>
<g id="Group_9">
<path id="Vector_5" d="M24.7431 7.75013L22.7866 8.80632L22.9014 9.90933L21.9014 10.4486L21.5033 5.22665L22.4666 4.70703L26.6276 7.89936L25.6045 8.45154L24.7431 7.75013ZM24.0366 7.17692L22.4965 5.92603L22.7003 7.89801L24.0366 7.17692Z" fill="#343434"/>
</g>
<g id="Group_10">
<path id="Vector_6" d="M37.4767 4.0485L37.6282 4.93714L33.5018 5.63924L33.3809 4.93239L35.438 1.37443L32.902 1.80586L32.7505 0.917218L36.7226 0.241577L36.8436 0.948422L34.7926 4.50503L37.4767 4.0485Z" fill="#343434"/>
</g>
<g id="Group_11">
<path id="Vector_7" d="M44.0413 3.81167L41.8185 3.73705L41.3599 4.74712L40.2247 4.70913L42.5189 0L43.6133 0.0359528L45.5943 4.88822L44.4312 4.84955L44.0413 3.81167ZM43.7206 2.95966L43.0229 1.10368L42.2023 2.90878L43.7206 2.95966Z" fill="#343434"/>
</g>
<g id="Group_12">
<path id="Vector_8" d="M52.2261 3.7228L53.2098 3.96361L52.7478 5.84808C52.1418 6.10789 51.3864 6.14113 50.722 5.979C49.26 5.62151 48.4285 4.3557 48.7723 2.95558C49.1153 1.55545 50.438 0.816048 51.9204 1.17897C52.7376 1.3784 53.3477 1.8234 53.671 2.45767L52.8239 2.92573C52.5725 2.4848 52.2213 2.22295 51.7492 2.10763C50.8456 1.88649 50.0793 2.33963 49.8626 3.22217C49.6493 4.09182 50.116 4.85972 51.0066 5.07747C51.2994 5.14937 51.5848 5.16226 51.8932 5.08357L52.2261 3.7228Z" fill="#343434"/>
</g>
<g id="Group_13">
<path id="Vector_9" d="M56.7335 5.27353C57.3646 3.99958 58.8252 3.54644 60.1812 4.21666C61.5311 4.8828 62.0664 6.31413 61.4326 7.59418C60.7987 8.87491 59.3347 9.31788 57.9849 8.65174C56.6296 7.9822 56.1031 6.54816 56.7335 5.27353ZM60.4265 7.09695C60.83 6.28225 60.529 5.44041 59.7627 5.06121C58.9957 4.68269 58.1432 4.95539 57.7396 5.77009C57.3361 6.58479 57.6371 7.42663 58.4034 7.80515C59.1703 8.18503 60.0229 7.91233 60.4265 7.09695Z" fill="#343434"/>
</g>
<g id="Group_14">
<path id="Vector_10" d="M65.5216 13.4917L65.6343 11.8752L65.5915 11.8413L64.8381 11.2396L64.0046 12.2795L63.1391 11.5883L66.1316 7.85461L67.7505 9.14824C68.7492 9.94666 68.9598 10.9635 68.2886 11.8006C67.8395 12.3609 67.2274 12.5454 66.5746 12.365L66.4516 14.2352L65.5216 13.4917ZM67.1377 9.81302L66.4326 9.24931L65.3891 10.5504L66.0943 11.1141C66.6235 11.5367 67.0868 11.5048 67.4115 11.0992C67.741 10.6888 67.6663 10.2356 67.1377 9.81302Z" fill="#343434"/>
</g>
<g id="Group_15">
<path id="Vector_11" d="M70.4584 14.8065C71.563 13.9103 73.0793 14.105 74.0331 15.2772C74.9822 16.4433 74.8735 17.9669 73.7641 18.8678C72.6547 19.7686 71.1391 19.5631 70.1894 18.3977C69.2362 17.2255 69.3545 15.7032 70.4584 14.8065ZM73.0569 17.9981C73.7627 17.4249 73.8409 16.5342 73.3008 15.8721C72.7614 15.2094 71.8728 15.1029 71.1663 15.6768C70.4604 16.25 70.383 17.1407 70.9224 17.8034C71.4618 18.4655 72.3504 18.5713 73.0569 17.9981Z" fill="#343434"/>
</g>
<g id="Group_16">
<path id="Vector_12" d="M79.9428 24.9947L74.7349 25.3244L74.2369 24.351L77.5637 20.3398L78.1079 21.4042L75.7234 24.2533L79.4421 24.0152L79.9428 24.9947Z" fill="#343434"/>
</g>
<g id="Group_17">
<path id="Vector_13" d="M78.4529 32.5202L77.8612 30.3793L76.7586 30.2437L76.4563 29.1501L81.6418 29.9323L81.9332 30.9865L77.8857 34.3212L77.5759 33.2013L78.4529 32.5202ZM79.171 31.9599L80.7369 30.7416L78.7668 30.498L79.171 31.9599ZM82.2199 30.5598L81.9978 29.7566L83.1934 30.3841L83.4998 31.4905L82.2199 30.5598Z" fill="#343434"/>
</g>
<g id="Group_18">
<path id="Vector_14" d="M80.8531 49.49C79.8246 49.3367 79.3123 48.5003 79.4965 47.2704L79.671 46.1009L78.2363 45.8873L78.3375 45.2109L83.0753 45.9171L82.7994 47.7622C82.6153 48.9928 81.8816 49.6433 80.8531 49.49ZM80.9537 48.8144C81.6303 48.9154 82.0841 48.52 82.2132 47.655L82.385 46.5059L80.2594 46.1891L80.0875 47.3376C79.9591 48.2025 80.277 48.7133 80.9537 48.8144Z" fill="#343434"/>
</g>
<g id="Group_19">
<path id="Vector_15" d="M76.2498 55.8937L75.6894 55.6936L76.8612 52.4266L81.3694 54.0391L80.2301 57.2158L79.6697 57.015L80.5786 54.4814L79.1941 53.9855L78.3843 56.2431L77.8368 56.0477L78.6466 53.7901L77.1907 53.2692L76.2498 55.8937Z" fill="#343434"/>
</g>
<g id="Group_20">
<path id="Vector_16" d="M72.4679 61.6922L74.2614 61.5681C74.3049 61.4826 74.3524 61.3917 74.4054 61.3036L75.0168 60.2914L73.7689 59.5392L74.1221 58.9537L78.2233 61.4257L77.258 63.0225C76.6146 64.0868 75.6867 64.4057 74.796 63.8691C74.1629 63.4879 73.904 62.8848 74.046 62.1874L72.082 62.3285L72.4679 61.6922ZM75.15 63.285C75.7356 63.6384 76.3069 63.4478 76.7593 62.6989L77.3606 61.7045L75.5148 60.592L74.9136 61.5864C74.4618 62.3353 74.5644 62.9323 75.15 63.285Z" fill="#343434"/>
</g>
<g id="Group_21">
<path id="Vector_17" d="M70.599 65.1709L70.8239 65.7163C70.347 65.7631 69.7655 66.0575 69.3511 66.512C68.7947 67.1239 68.7933 67.6028 69.1024 67.883C69.9686 68.6685 71.3721 66.0283 72.6887 67.2236C73.2356 67.7195 73.315 68.5667 72.4679 69.4974C72.0902 69.9119 71.5881 70.2409 71.1187 70.3501L70.8653 69.8156C71.3436 69.686 71.7519 69.4201 72.0372 69.1067C72.5848 68.505 72.5664 68.018 72.2573 67.7371C71.3918 66.9516 69.9822 69.587 68.6812 68.406C68.1398 67.9142 68.0691 67.0567 68.9203 66.1213C69.4122 65.5806 70.078 65.215 70.599 65.1709Z" fill="#343434"/>
</g>
<g id="Group_22">
<path id="Vector_18" d="M66.8491 71.5982C67.6758 72.7297 67.4197 74.2099 66.2315 75.0755C65.0542 75.9329 63.5678 75.7301 62.7376 74.5938C61.9068 73.4569 62.167 71.9822 63.3443 71.124C64.5325 70.2585 66.0223 70.4667 66.8491 71.5982ZM63.29 74.1909C63.915 75.0463 65.0155 75.2084 65.8722 74.5843C66.7397 73.9521 66.9217 72.8559 66.2961 72.0005C65.6711 71.1451 64.5705 70.9836 63.7023 71.6152C62.8463 72.2393 62.665 73.3355 63.29 74.1909Z" fill="#343434"/>
</g>
<g id="Group_23">
<path id="Vector_19" d="M56.3647 80.3992L54.455 76.0137L54.9693 75.7905L59.0291 77.9165L57.6045 74.6461L58.2322 74.3734L60.1425 78.759L59.6276 78.9821L55.5678 76.8562L56.9924 80.1265L56.3647 80.3992Z" fill="#343434"/>
</g>
<g id="Group_24">
<path id="Vector_20" d="M47.9271 78.9325L50.4231 78.434L50.7043 77.158L51.3952 77.0203L50.2084 82.1351L49.544 82.268L46.4706 78.0046L47.1751 77.8635L47.9271 78.9325ZM48.2695 79.4216L49.743 81.5171L50.296 79.0167L48.2695 79.4216Z" fill="#343434"/>
</g>
<g id="Group_25">
<path id="Vector_21" d="M43.2641 82.9966L42.58 83L42.561 78.8111L39.9672 78.8227L39.9645 78.2284L43.2424 78.2135L43.2641 82.9966Z" fill="#343434"/>
</g>
<g id="Group_26">
<path id="Vector_22" d="M30.1867 80.7614L31.7594 81.2342L31.5875 81.8033L27.7933 80.6623L27.9652 80.0925L29.5379 80.5653L30.7471 76.5542L31.3959 76.7489L30.1867 80.7614Z" fill="#343434"/>
</g>
<g id="Group_27">
<path id="Vector_23" d="M23.3245 73.338L23.5535 75.1187C23.6411 75.1567 23.7355 75.1988 23.8259 75.2462L24.8734 75.7971L25.5521 74.5096L26.1574 74.8277L23.9257 79.0586L22.2729 78.1896C21.171 77.6103 20.7987 76.704 21.2831 75.7855C21.6275 75.1323 22.2151 74.8392 22.9196 74.9396L22.6635 72.9907L23.3245 73.338ZM21.8891 76.1044C21.5704 76.7088 21.7939 77.2664 22.5691 77.6741L23.5983 78.2154L24.6024 76.3113L23.5732 75.7699C22.798 75.3622 22.2077 75.4993 21.8891 76.1044Z" fill="#343434"/>
</g>
<g id="Group_28">
<path id="Vector_24" d="M16.6248 69.9884L18.5901 71.6043L19.7579 71.0155L20.3021 71.4632L15.5827 73.7784L15.0596 73.3483L16.4251 68.2749L16.9794 68.7308L16.6248 69.9884ZM16.4617 70.563L15.7675 73.0281L18.0569 71.8749L16.4617 70.563Z" fill="#343434"/>
</g>
<g id="Group_29">
<path id="Vector_25" d="M10.5963 69.0143L10.1472 68.4988L13.76 65.3573L14.2097 65.8729L10.5963 69.0143Z" fill="#343434"/>
</g>
<g id="Group_30">
<path id="Vector_26" d="M5.06635 61.1916L9.16417 58.7163L9.45493 59.1959L7.88632 63.4967L10.942 61.6509L11.296 62.2356L7.19814 64.7109L6.90806 64.2313L8.47667 59.9299L5.42096 61.7757L5.06635 61.1916Z" fill="#343434"/>
</g>
<g id="Group_31">
<path id="Vector_27" d="M5.8109 52.0548L6.37272 51.8574L7.52557 55.1325L3.00587 56.7185L1.88495 53.5336L2.44677 53.3362L3.34079 55.8767L4.7287 55.3889L3.93182 53.1259L4.48074 52.9333L5.27693 55.1963L6.73617 54.6841L5.8109 52.0548Z" fill="#343434"/>
</g>
<g id="Group_32">
<path id="Vector_28" d="M5.09156 45.1771L3.77702 46.4009C3.7974 46.4945 3.81778 46.5949 3.83205 46.6967L3.99509 47.8668L5.4387 47.6667L5.53313 48.3437L0.789927 49.0024L0.532454 47.1552C0.360579 45.924 0.880281 45.093 1.91017 44.9499C2.64183 44.8481 3.22335 45.1534 3.55283 45.7836L4.98898 44.4391L5.09156 45.1771ZM2.0046 45.6269C1.32729 45.7212 1.00392 46.2279 1.12485 47.0942L1.28517 48.244L3.41968 47.9475L3.25936 46.7977C3.13843 45.9315 2.68191 45.5326 2.0046 45.6269Z" fill="#343434"/>
</g>
</g>
<g id="Group_33">
<g id="Group_34">
<path id="Vector_29" d="M2.4516 40.3681C3.08756 40.3681 3.6031 39.8533 3.6031 39.2183C3.6031 38.5833 3.08756 38.0685 2.4516 38.0685C1.81565 38.0685 1.30011 38.5833 1.30011 39.2183C1.30011 39.8533 1.81565 40.3681 2.4516 40.3681Z" fill="#FF8080"/>
</g>
</g>
<g id="Group_35">
<g id="Group_36">
<path id="Vector_30" d="M80.4665 40.2527C81.1081 40.2527 81.6282 39.7334 81.6282 39.0927C81.6282 38.4521 81.1081 37.9327 80.4665 37.9327C79.8249 37.9327 79.3048 38.4521 79.3048 39.0927C79.3048 39.7334 79.8249 40.2527 80.4665 40.2527Z" fill="#FF8080"/>
</g>
</g>
</g>
</g>
<g id="Group_37">
<g id="Group_38">
<path id="Vector_31" d="M37.389 61.3414H59.4311L58.2287 59.8768H40.5099L46.5928 51.0107L51.5962 57.1017H53.887L47.641 49.4838L47.6465 49.4763L46.228 47.7607L34.762 33.7765L56.3523 33.7819L56.2327 33.9549L48.3292 45.4408L49.4644 46.8253L58.5398 33.5981L59.4515 32.3173H34.7952L46.266 20.1687H44.0031L32.9345 31.8282L28.3251 36.6154V20.3342L26.4712 22.2791V51.0603L28.3251 49.2565V38.742L32.8652 34.2981L45.4522 49.6222L45.4053 49.6907L37.389 61.3414Z" fill="#FF8080"/>
</g>
</g>
</g>
</svg>
