<svg width="86" height="90" viewBox="0 0 86 90" fill="none" xmlns="http://www.w3.org/2000/svg">
<g id="Bez na&#204;&#129;zvu-1-04" clip-path="url(#clip0_264_308)">
<path id="Vector" d="M76.8779 90C75.3199 89.7667 73.7582 89.564 72.2077 89.2962C68.3408 88.6344 64.6467 87.4065 61.0877 85.7311C60.7123 85.5551 60.2055 85.4939 59.8038 85.5857C53.6469 86.9819 47.4337 87.7699 41.1191 87.835C32.2817 87.9268 24.2552 85.3677 16.9833 80.326C13.8035 78.1189 10.7475 75.7243 7.55272 73.5439C6.23499 72.645 4.72205 72.0291 3.25415 71.3865C1.09924 70.4455 0.5774 69.5618 0.442249 67.2017C0.201979 63.0169 1.39206 59.0884 2.42447 55.156C6.07356 41.2857 9.84654 27.4537 13.5519 13.5987C13.9011 12.2981 14.6519 11.4604 15.8157 10.9211C23.4368 7.38655 31.0541 3.84056 38.6713 0.298399C39.7788 -0.218007 40.3007 -0.0917747 41.0515 0.89896C43.5781 4.23839 46.1047 7.57399 48.6087 10.9325C50.0466 12.8566 49.964 14.9452 48.3835 16.7737C46.0859 19.4322 43.7696 22.0754 41.4344 24.7034C39.7338 26.6198 37.1171 26.7996 35.3151 24.9635C34.2301 23.858 33.3141 23.2727 31.8387 24.1984C31.2643 24.558 30.4684 24.5504 29.8001 24.7034C30.2507 32.4495 30.7012 40.1841 31.1592 48.0564C34.8233 45.7842 38.6901 44.5448 42.9098 44.7399C47.107 44.935 50.9176 46.3809 54.4878 48.7602C54.7206 48.4925 54.9383 48.2362 55.1598 47.9837C58.3471 44.2962 62.0901 41.4923 66.903 40.4557C71.9862 39.3616 76.7653 40.4059 81.3041 42.7967C82.5242 43.4393 83.673 44.2273 84.8106 45.0153C85.7191 45.6465 85.873 46.511 85.3211 47.2722C84.7955 48.0028 83.9133 48.0755 83.0386 47.4367C80.0014 45.2257 76.6827 43.7301 72.9585 43.2175C68.4347 42.594 64.4139 43.8372 60.8775 46.6755C59.3983 47.8613 58.0994 49.2843 56.6878 50.6269C57.296 51.4188 57.799 52.0499 58.2721 52.704C59.357 54.1959 60.2092 55.814 60.5959 57.6462C60.8324 58.767 60.412 59.5818 59.5185 59.7998C58.7526 59.9873 57.9379 59.5512 57.7615 58.7785C56.7891 54.5287 54.1387 51.6751 50.4145 49.8045C43.8296 46.4995 37.5376 47.1613 31.5834 51.4647C31.3093 51.6636 31.1066 52.0232 30.9715 52.3521C30.3896 53.7445 29.9353 55.2019 29.2445 56.5369C28.8954 57.2102 28.2084 57.7801 27.5514 58.1932C26.8381 58.6446 26.0046 58.3042 25.6142 57.6233C25.2088 56.908 25.4265 56.1047 26.121 55.5462C26.4251 55.3014 26.7442 55.003 26.9094 54.6587C27.7166 52.9718 28.3848 51.2619 28.2497 49.3034C27.9381 44.7782 27.7015 40.2453 27.435 35.7162C27.2623 32.7363 27.0521 29.7565 26.9394 26.7728C26.9019 25.7706 26.2074 25.2351 25.7907 24.493C25.5429 24.0531 25.2576 23.5558 25.2463 23.0776C25.2238 22.1902 26.061 21.7235 26.992 21.6814C28.4374 21.6126 29.8827 21.4098 31.3169 21.1765C31.6923 21.1153 32.0639 20.7672 32.353 20.4688C33.0888 19.7038 33.896 19.6158 34.7031 20.335C35.5704 21.1038 36.3925 21.9262 37.2485 22.7066C37.9918 23.3837 38.5888 23.3798 39.2608 22.6224C41.5884 19.9907 43.8934 17.336 46.2098 14.6927C46.6941 14.1419 46.7804 13.5299 46.3412 12.937C43.9798 9.76967 41.5959 6.61768 39.1819 3.41214C37.3987 4.23839 35.653 5.03786 33.911 5.84881C28.3811 8.41936 22.8586 11.0014 17.3249 13.5528C16.7468 13.8206 16.4502 14.1916 16.2812 14.8113C13.3717 25.5908 10.4059 36.3512 7.54146 47.1422C6.14864 52.3827 4.88348 57.6577 3.69339 62.948C3.35176 64.4628 3.45312 66.0847 3.42309 67.6569C3.41934 67.9093 3.73469 68.2689 3.98997 68.4028C4.59816 68.7241 5.24763 68.9689 5.90087 69.1908C8.38615 70.0438 10.2783 71.8417 12.3356 73.3679C16.4464 76.4243 20.6136 79.3697 25.2463 81.5692C30.4609 84.0442 35.9796 84.8092 41.671 84.7709C47.8429 84.7289 53.9059 83.8376 59.9127 82.4529C60.4683 82.3228 61.1853 82.4146 61.6996 82.6671C67.4774 85.513 73.578 86.9322 79.9826 87.0049C81.2441 87.0202 82.5092 86.8863 83.7669 86.7983C84.8068 86.7218 85.5464 87.2459 85.629 88.1639C85.7078 89.0361 85.017 89.7284 83.9921 89.8317C83.6317 89.8661 83.2713 89.9541 82.9147 90.0153H76.8779V90Z" fill="#FF8080"/>
<path id="Vector_2" d="M70.2324 8.83255C71.4825 7.46694 72.9279 6.48386 74.7524 6.12811C77.737 5.54285 80.8418 6.87786 82.4974 9.50961C84.1417 12.1222 84.0704 15.5879 82.2946 18.0896C81.9605 18.5601 81.5738 19.0038 81.1684 19.417C78.0073 22.6531 74.8388 25.8778 71.6665 29.1063C70.5365 30.2538 69.8907 30.25 68.7645 29.1024C65.4758 25.7515 62.1533 22.4274 58.9022 19.0344C54.8777 14.8305 56.6421 7.97187 62.1683 6.3079C64.6799 5.5505 66.9925 6.07838 69.0385 7.74236C69.4402 8.0675 69.8044 8.44238 70.2324 8.83637V8.83255ZM70.1761 26.1876C73.3484 22.9859 76.5432 19.8645 79.6179 16.6284C81.2585 14.9032 81.0407 12.0496 79.3551 10.3512C77.6582 8.64511 74.9702 8.55331 73.1832 10.1561C72.6651 10.6189 72.1921 11.1353 71.704 11.6288C70.5064 12.8376 69.9095 12.8452 68.7382 11.6556C68.2689 11.1812 67.8184 10.6878 67.3266 10.2364C66.3167 9.30688 65.1154 8.86698 63.7639 9.05059C61.8943 9.30305 60.5615 10.332 59.9646 12.1681C59.3677 13.9928 59.7732 15.6415 61.1059 17.0109C64.0229 20.0022 66.9549 22.9782 69.887 25.9543C69.9846 26.0537 70.1047 26.1302 70.1761 26.1876Z" fill="#FF8080"/>
<path id="Vector_3" d="M42.5639 80.1959C32.5927 79.9855 25.1181 76.7417 19.3891 69.6727C19.0775 69.2902 18.796 68.8809 18.5257 68.4716C17.8649 67.4694 17.9363 66.6355 18.7059 66.0885C19.4868 65.5377 20.3089 65.7595 20.9622 66.7426C22.2949 68.7508 23.943 70.4569 25.8276 71.9143C30.8395 75.7854 36.5346 77.3959 42.7666 77.0401C44.6474 76.933 46.517 76.5849 48.3904 76.3248C49.4003 76.1833 50.1436 76.5926 50.3313 77.4494C50.5303 78.3789 50.0648 79.121 48.9836 79.2932C46.4983 79.691 43.998 80.0008 42.5639 80.1959Z" fill="#FF8080"/>
<path id="Vector_4" d="M75.691 67.3354C75.89 67.5038 76.4756 67.7639 76.6333 68.1885C76.9787 69.1027 77.6094 69.688 78.4128 69.971C80.2936 70.6328 82.212 71.1951 84.1342 71.7345C85.1328 72.0137 85.7673 72.7061 85.6058 73.5476C85.4256 74.4925 84.6936 74.9171 83.5711 74.7258C83.2031 74.6646 82.8352 74.6072 82.4748 74.5269C80.2298 74.0334 78.0223 73.4329 76.0777 72.1208C75.0002 71.394 74.1067 70.5027 73.8702 69.1295C73.7013 68.1426 74.407 67.3163 75.6947 67.3393L75.691 67.3354Z" fill="#FF8080"/>
</g>
<defs>
<clipPath id="clip0_264_308">
<rect width="85.2321" height="90" fill="white" transform="translate(0.409561)"/>
</clipPath>
</defs>
</svg>
