<svg width="95" height="99" viewBox="0 0 95 99" fill="none" xmlns="http://www.w3.org/2000/svg">
<g id="yoga 1">
<path id="Vector" d="M6.02684 80.309C6.52201 78.5915 7.73641 77.5287 9.19055 76.5937C12.2221 74.6474 15.276 72.7169 18.1663 70.5689C20.8774 68.5554 23.3779 66.2616 25.9882 64.1113C29.6762 61.0731 33.3374 57.9991 37.0948 55.0461C39.1942 53.3958 41.6477 52.2187 43.5701 50.3038C44.1527 49.7231 44.9346 49.8061 45.4432 50.3397C45.9631 50.8823 45.9608 51.7209 45.3357 52.2815C44.2961 53.212 43.1825 54.0618 42.1406 54.99C41.8314 55.2658 41.5357 55.6649 41.446 56.0573C40.9867 58.0798 41.1749 60.0552 42.0532 61.9476C42.7433 63.4364 43.8457 64.4633 45.385 65.071C47.5763 65.9365 49.8348 66.1988 52.1829 66.2481C56.6484 66.3423 61.1117 66.6181 65.5749 66.8513C66.7848 66.9141 67.1859 67.4388 67.0582 68.6765C66.861 70.5913 66.6235 72.5039 66.386 74.5577C67.7953 74.5577 69.1464 74.5734 70.4975 74.5331C70.6364 74.5286 70.8448 74.208 70.8874 74.0039C71.4296 71.4344 71.9718 68.8648 72.4603 66.2863C72.8994 63.9701 71.7298 61.9969 69.5004 61.2032C66.4196 60.1067 63.3007 59.1628 60.0586 58.6516C58.7658 58.4475 57.4998 58.0641 56.2115 57.8332C53.8499 57.4116 51.4816 57.0282 49.1133 56.6538C48.0916 56.4923 47.5158 55.9295 47.6345 55.1111C47.7533 54.2837 48.4501 53.8622 49.4763 53.9923C50.3076 54.0976 51.1612 54.1156 51.9656 54.3263C53.2158 54.656 54.2241 54.2905 55.2503 53.6044C57.1772 52.3173 59.1758 51.1379 61.1117 49.8621C63.5898 48.2298 65.4539 46.0167 66.8946 43.4472C67.7214 41.9718 67.7752 40.9 67.094 39.3978C66.6795 39.9157 66.3748 40.3821 65.9894 40.7655C65.2366 41.5144 64.4434 41.5615 63.8698 40.9516C63.303 40.3485 63.3993 39.5771 64.1522 38.8238C72.1152 30.8505 80.0827 22.8817 88.0458 14.9084C88.2833 14.6707 88.5297 14.4398 88.7314 14.1752C89.4125 13.2851 89.3543 12.1169 88.6104 11.3366C87.8374 10.5249 86.6499 10.4307 85.7066 11.0832C85.3929 11.3007 85.0613 11.5586 84.7028 11.6348C84.0979 11.7626 83.6139 11.4756 83.3338 10.9106C83.0291 10.2962 83.1971 9.76032 83.6699 9.31636C84.9717 8.08763 86.511 7.66834 88.2362 8.14369C90.0063 8.63025 91.2274 9.75359 91.7181 11.5518C92.1774 13.238 91.7853 14.7627 90.6426 16.0833C90.3513 16.4219 90.0242 16.7313 89.7083 17.0475C83.1075 23.6553 76.5112 30.2675 69.8925 36.8529C69.4131 37.3304 69.3391 37.6847 69.6259 38.2856C70.567 40.2588 70.4437 42.2521 69.5049 44.1893C68.0889 47.1087 66.0679 49.5594 63.4576 51.4698C61.701 52.7546 59.8233 53.8712 57.9995 55.064C57.8897 55.1358 57.7911 55.2255 57.5379 55.4228C59.6755 55.8398 61.6875 56.1201 63.6346 56.6403C66.1373 57.3085 68.6423 58.0305 71.0464 58.9789C74.2057 60.2256 75.7853 63.5911 75.0728 67.0553C73.892 72.7999 72.7 78.5421 71.5125 84.2867C71.4901 84.3921 71.4789 84.5019 71.4497 84.697C72.2631 84.91 73.054 85.1499 73.8606 85.3248C76.0228 85.7934 77.5128 87.0177 78.3239 89.0984C78.409 89.3182 78.8571 89.5177 79.1394 89.52C82.7177 89.5491 86.2959 89.5379 89.8718 89.5379C91.2431 89.5379 91.8817 89.9617 91.8884 90.8743C91.8951 91.7913 91.2543 92.2218 89.8898 92.2218C62.5815 92.2218 35.271 92.2196 7.9627 92.2375C7.14489 92.2375 6.49736 92.0626 6.0246 91.3832V90.3765C6.73038 89.2195 7.96046 89.6388 8.99338 89.5065C8.67297 88.7666 8.38169 88.1365 8.12403 87.493C7.416 85.7172 6.72366 83.9346 6.0246 82.1521C6.0246 81.5377 6.0246 80.9211 6.0246 80.3068L6.02684 80.309ZM64.2664 69.4455C64.02 69.4141 63.8609 69.3827 63.6996 69.376C59.6553 69.2168 55.6066 69.1137 51.5645 68.8782C49.7407 68.7706 47.9325 68.3872 46.1154 68.154C45.7771 68.1114 45.3828 68.0935 45.0848 68.2258C40.7291 70.1675 36.3913 72.1496 32.0378 74.1003C26.7321 76.4771 21.581 79.1363 16.7749 82.4301C16.5307 82.5983 16.1677 82.9189 16.1991 83.1162C16.524 85.2575 16.9161 87.3854 17.2835 89.4931H62.2925C61.6091 88.0312 61.8914 86.6477 62.3059 85.2643C62.4247 84.8652 62.512 84.4503 62.5613 84.0355C62.9557 80.7911 63.3411 77.5466 63.7197 74.2999C63.9079 72.699 64.0805 71.0958 64.2642 69.4478L64.2664 69.4455ZM22.466 75.6093C29.1004 72.5599 35.681 69.5352 42.3176 66.4858C39.4519 64.0889 38.4728 60.97 38.4929 57.3062C38.0426 57.6426 37.7222 57.8601 37.4242 58.1045C35.5667 59.6269 33.7048 61.1426 31.863 62.683C28.4148 65.5688 24.9777 68.4657 21.5541 71.3783C21.3345 71.5666 21.0993 72.0039 21.1732 72.2259C21.5563 73.3851 22.0358 74.5129 22.4638 75.6093H22.466ZM20.1515 77.078C19.6631 75.8358 19.2082 74.6811 18.7332 73.4703C15.6278 75.5466 12.6097 77.5533 9.60506 79.5803C8.86342 80.0803 8.49372 80.8382 8.79844 81.6902C9.51095 83.6835 10.2571 85.6701 11.1107 87.6074C11.7112 88.9706 13.2998 89.715 14.5321 89.3989C14.1534 87.2015 13.8062 84.9974 13.3849 82.8091C13.2034 81.8651 13.5171 81.2844 14.3103 80.7978C16.2551 79.6005 18.1663 78.3493 20.156 77.0802L20.1515 77.078ZM75.4021 89.5401L75.5657 89.1747C74.9182 88.7957 74.311 88.2957 73.6142 88.0625C72.3751 87.6477 71.08 87.4056 69.8141 87.0715C68.7117 86.78 68.3936 86.2934 68.5952 85.1746C68.7678 84.2149 68.9918 83.2642 69.1868 82.3068C69.5251 80.6543 69.8567 78.9995 70.1973 77.3112H66.2538C65.6847 80.679 65.1134 83.9705 64.5756 87.2666C64.3829 88.4527 65.2612 89.4886 66.4756 89.5312C67.5063 89.5671 68.5415 89.5401 69.5721 89.5401C71.5147 89.5401 73.4573 89.5401 75.3999 89.5401H75.4021Z" fill="#FF8080"/>
<path id="Vector_2" d="M57.4125 11.9352C60.9392 10.4396 64.2082 10.7087 67.1635 13.0877C70.1816 15.5182 70.5266 18.9017 70.1973 22.6417C70.5132 22.3973 70.6857 22.2919 70.8269 22.1529C72.5678 20.4174 74.311 18.6797 76.0429 16.9331C77.9923 14.9689 79.0745 12.6123 79.2067 9.83424C79.2156 9.63917 79.2223 9.44185 79.2492 9.24902C79.3635 8.43734 79.9102 7.93957 80.6384 7.97545C81.3666 8.01133 81.8842 8.55842 81.8954 9.37907C81.9155 11.1325 81.5682 12.8209 80.8983 14.4397C80.2037 16.1146 79.1999 17.5788 77.9206 18.8569C72.3079 24.4713 66.6997 30.0858 61.087 35.7003C60.3252 36.4626 59.5567 36.577 58.9607 36.0366C58.367 35.4985 58.3446 34.6756 58.9697 34.0366C59.5702 33.4222 60.2289 32.8617 61.0243 32.1262C59.9018 31.5208 58.9943 31.032 58.0376 30.5163C57.5693 31.9356 57.2355 33.328 56.6619 34.6173C55.3735 37.521 53.9754 40.3753 52.6042 43.2408C52.295 43.8866 51.7102 44.2834 51.0335 44.0099C50.6145 43.8417 50.1933 43.3529 50.0566 42.9179C49.9491 42.5794 50.2067 42.0614 50.4218 41.6915C52.1202 38.7878 53.5183 35.7519 54.5535 32.5522C54.9232 31.411 55.257 30.2562 55.5505 29.0948C55.62 28.8212 55.5662 28.4086 55.3982 28.2024C53.8141 26.2942 52.9066 24.1148 52.649 21.608C52.295 21.5542 51.9432 21.5094 51.5959 21.4489C48.6719 20.9331 46.9937 18.1887 47.8877 15.368C48.1499 14.5429 48.4613 13.7357 48.7414 12.9173C49.3732 11.0764 50.675 9.99119 52.5706 9.70643C54.4302 9.42616 55.974 10.0742 57.1391 11.5742C57.2243 11.6818 57.3072 11.7917 57.4147 11.9307L57.4125 11.9352ZM56.7179 25.4512C56.9106 24.9893 57.0495 24.6642 57.1839 24.3346C57.641 23.2202 58.3109 22.8121 59.1265 23.1552C59.9376 23.4982 60.1169 24.2404 59.662 25.3794C59.3551 26.1485 59.0503 26.9176 58.6918 27.8145C59.6598 28.2965 60.5448 28.7495 61.441 29.1822C62.6151 29.7495 63.6749 29.7607 64.4703 28.523C64.5891 28.3391 64.7818 28.2046 64.9386 28.0454C65.8012 27.171 66.9999 26.4333 67.4301 25.3794C67.8715 24.2987 67.569 22.9108 67.5803 21.6551C67.5892 20.7829 67.5803 19.9085 67.5803 18.8703C67.2419 19.1461 67.0739 19.2829 66.9036 19.4197C65.1156 20.8412 63.0901 21.5991 60.7935 21.5789C60.0407 21.5722 59.5814 21.1798 59.4985 20.4286C59.4178 19.691 59.736 19.1753 60.4754 18.9892C60.7689 18.9152 61.0803 18.9084 61.385 18.877C63.4374 18.6775 65.091 17.7761 66.3255 16.1259C64.5868 13.702 60.9302 12.9442 58.423 14.4846C58.1989 14.6236 58.0264 14.9218 57.9323 15.1841C57.2691 17.0026 57.0181 19.0116 55.4564 20.4062C55.3825 20.4712 55.3265 20.5991 55.3242 20.6977C55.2884 22.3838 55.75 23.9198 56.7134 25.4445L56.7179 25.4512ZM55.49 14.3792C55.3399 13.4195 54.6879 12.6011 53.7872 12.3769C52.8081 12.1325 51.7617 12.6123 51.3741 13.563C51.0066 14.4621 50.6952 15.3882 50.4062 16.3187C50.1238 17.2268 50.5294 18.1214 51.3651 18.5811C52.221 19.0519 53.4758 18.9353 53.9194 18.1192C54.5624 16.9353 54.9792 15.6326 55.4945 14.3792H55.49Z" fill="#FF8080"/>
<path id="Vector_3" d="M49.6533 47.0236C49.6713 47.8308 48.9431 48.6088 48.1566 48.6245C47.4128 48.6379 46.81 48.0707 46.7921 47.3397C46.7742 46.5751 47.5517 45.7455 48.3045 45.7298C49.0484 45.7141 49.6354 46.2792 49.6533 47.0213V47.0236Z" fill="#FF8080"/>
</g>
</svg>
